<svg xmlns="http://www.w3.org/2000/svg" xmlns:xlink="http://www.w3.org/1999/xlink" width="597" height="62" viewBox="0 0 597 62">
  <defs>
    <clipPath id="clip-path">
      <path id="Caminho_46" data-name="Caminho 46" d="M0,0H597V-62H0Z" fill="none"/>
    </clipPath>
    <clipPath id="clip-path-2">
      <path id="Caminho_49" data-name="Caminho 49" d="M68-42.25a2.328,2.328,0,0,0-2.4-2.25H41.174A4.953,4.953,0,0,0,37.8-43.185L27.661-33.678a2.827,2.827,0,0,1-1.081.626l-3.3,1.032A4.528,4.528,0,0,0,20-27.755V-22h4.8a4.659,4.659,0,0,0,4.8,4.5A4.661,4.661,0,0,0,34.4-22H53.6a4.662,4.662,0,0,0,4.8,4.5A4.658,4.658,0,0,0,63.2-22a4.656,4.656,0,0,0-4.8-4.5,4.858,4.858,0,0,0-4.156,2.25H33.755A4.858,4.858,0,0,0,29.6-26.5a4.865,4.865,0,0,0-4.156,2.25H22.4l0-3.5a2.267,2.267,0,0,1,1.64-2.132l3.3-1.03a5.2,5.2,0,0,0,2.022-1.172l10.143-9.5a2.451,2.451,0,0,1,1.681-.658H65.6V-22A2.332,2.332,0,0,0,68-24.247Zm-38.4,18A2.328,2.328,0,0,1,32-22a2.328,2.328,0,0,1-2.4,2.25A2.328,2.328,0,0,1,27.2-22a2.328,2.328,0,0,1,2.4-2.25Zm28.8,0A2.326,2.326,0,0,1,60.8-22a2.326,2.326,0,0,1-2.4,2.25A2.326,2.326,0,0,1,56-22a2.326,2.326,0,0,1,2.4-2.25Z" fill="none" clip-rule="evenodd"/>
    </clipPath>
    <clipPath id="clip-path-5">
      <path id="Caminho_53" data-name="Caminho 53" d="M533.816-47c23.369,0,42.313,7.162,42.313,16s-18.945,16-42.313,16S491.5-22.163,491.5-31,510.445-47,533.816-47Zm0,1.221c-22.55,0-40.887,6.815-40.887,14.888S511.266-16.22,533.816-16.22s40.893-6.6,40.893-14.671S556.366-45.779,533.816-45.779Zm27.21,9.539c.135,0,.2.079.138.186-.354.617-7.171,11.083-7.6,12.166a.8.8,0,0,0-.014.793c.357.487,1.151.2,1.648-.147a29.459,29.459,0,0,0,3.634-3.357.207.207,0,0,1,.252,0c.167.157.411.361.58.539a.16.16,0,0,1,.008.223,22.983,22.983,0,0,1-3.505,3.565c-1.825,1.424-3.643,1.785-4.544.873a1.983,1.983,0,0,1-.543-1.236c-.011-.223-.124-.233-.229-.13-1.076,1.073-2.945,2.262-4.646,1.416a3.444,3.444,0,0,1-1.484-3.86c0-.031-.026-.234-.2-.113a4.975,4.975,0,0,1-1.165.631,3.284,3.284,0,0,1-1.418.3,2,2,0,0,1-1.751-.989,2.985,2.985,0,0,1-.369-1.355c0-.046-.063-.127-.128-.022-1.161,1.788-2.244,3.517-3.4,5.334a.271.271,0,0,1-.231.144c-.713,0-1.491,0-2.276,0-.142,0-.206-.107-.132-.244.4-.787,2.612-4.031,4.111-6.793.414-.758.33-1.15.073-1.318-.321-.21-.96.106-1.5.52a20.414,20.414,0,0,0-3.332,3.656,21.729,21.729,0,0,1-1.681,2.195c-1.516,1.66-3.526,2.613-5.463,1.954a3.3,3.3,0,0,1-2.116-2.269c-.058-.2-.171-.261-.281-.126a7.918,7.918,0,0,1-1.488,1.338.339.339,0,0,1-.327.067,3.348,3.348,0,0,1-.588-.78.272.272,0,0,1,.062-.312,12.134,12.134,0,0,0,1.516-1.483,4.62,4.62,0,0,0,.662-1.235,8.7,8.7,0,0,1,3.636-4.53,6.984,6.984,0,0,1,2.529-.855c.39-.043.711.007.825.313.044.129.152.41.22.617a.2.2,0,0,1-.135.278,7.369,7.369,0,0,0-3.36,2.383c-.978,1.324-1.243,2.918-.587,3.835a1.691,1.691,0,0,0,1.994.543,4.542,4.542,0,0,0,2.582-2.595,6.3,6.3,0,0,0,.228-4.14.474.474,0,0,1,.142-.532,5.093,5.093,0,0,1,.832-.5.542.542,0,0,1,.708.175,4.585,4.585,0,0,1,.656,2.376c.026.189.105.194.2.1a23.259,23.259,0,0,1,2.205-2.268,4.111,4.111,0,0,1,2.493-1.025c1.108.025,1.662.785,1.623,2.135,0,.173.12.161.2.044a4.547,4.547,0,0,1,.933-1.033,3.274,3.274,0,0,1,2.368-.866,1.8,1.8,0,0,1,1.648,2.06,2.075,2.075,0,0,1-1.092,1.589,1.4,1.4,0,0,1-1.571-.173,1.318,1.318,0,0,1-.373-1.258c.019-.1-.1-.188-.209-.079-.985,1.033-1.057,2.37-.413,2.971.711.664,1.774.219,2.55-.291,1.422-.937,2.523-2.205,3.8-3.184a6.264,6.264,0,0,1,2.891-1.37,3.343,3.343,0,0,1,1.764.2,2.07,2.07,0,0,1,1.326,1.546c.014.168.141.188.244.041.612-.965,3.9-5.932,4.169-6.454.082-.163.172-.184.346-.184h2.352Zm-25.717-4.719a32,32,0,0,0,11.377-.415.583.583,0,0,1,.747.658c-.038.671-.554,1.318-1.824,2.017a9.231,9.231,0,0,1-4.536,1.055,25.326,25.326,0,0,1-7.019-1.212l-1.15-.322c-.958-.268-1.918-.528-2.887-.74.006.162.047.356-.088.459a17.53,17.53,0,0,0-5.116,5.218c-.041.05-.019.1.053.093,1.072-.057,2.035-.085,3.036-.166.175-.015.181-.059.166-.188a2.521,2.521,0,0,1,.778-2.18,1.583,1.583,0,0,1,2.051-.237,1.619,1.619,0,0,1,.229,2.047,2.45,2.45,0,0,1-1.482,1.212s-.116.026-.1.132c.022.171.777.593.842.7a.358.358,0,0,1-.085.4.476.476,0,0,1-.365.176.759.759,0,0,1-.374-.138,3.572,3.572,0,0,1-1.045-.848c-.1-.121-.145-.124-.386-.111-1.083.063-2.77.228-3.914.372-.277.035-.318.087-.375.184a48.3,48.3,0,0,1-5.908,8.49c-2.293,2.347-4.2,2.965-6.222,2.981a4.76,4.76,0,0,1-5.038-4.308,5.567,5.567,0,0,1,1.136-3.989,5.622,5.622,0,0,1,3.121-2.022,1.172,1.172,0,0,1,1.023.212.561.561,0,0,1-.088.915,5.27,5.27,0,0,0-2.314,2.149,2.654,2.654,0,0,0,.13,2.724c1.021,1.554,3.866,1.6,6.512-.881a22.854,22.854,0,0,0,1.838-1.88,41.762,41.762,0,0,0,3.1-4,.081.081,0,0,0,.016-.074c-.013-.028-.035-.035-.08-.038a4.7,4.7,0,0,0-2.812,1,.545.545,0,0,1-.775-.085.627.627,0,0,1,.241-.839,10.325,10.325,0,0,1,4.522-1.436.255.255,0,0,0,.2-.115c.645-.835,1.133-1.589,1.821-2.433a18.457,18.457,0,0,1,2.274-2.235,9.187,9.187,0,0,1,1.9-1.293l.288-.155h0c.164-.086-.021-.19-.07-.19l-.747-.143c-3.244-.626-6.588-1.276-9.794-.079-2.391.9-3.438,2.812-2.934,4.089.358.906,1.54,1.053,2.646.508a6,6,0,0,0,2.372-2.128c.337-.523,1.048-.145.665.763-1.01,2.394-2.94,4.293-5.291,4.373a3.1,3.1,0,0,1-3.287-3.249c.008-3.611,4-5.99,8.185-6.345C525.52-42.927,530.3-41.572,535.309-40.959ZM551.971-29.59c-.811-.393-2.048.327-3.167,1.715a5.675,5.675,0,0,0-1.431,3.42,1.208,1.208,0,0,0,.5,1.079c.79.42,1.745-.2,2.432-.779a5.715,5.715,0,0,0,1.167-1.273,10.137,10.137,0,0,0,.919-1.532c.041-.084.021-.11-.015-.124-.1-.037-.205-.114-.219-.194a.212.212,0,0,1,.015-.159C552.543-28.206,552.811-29.186,551.971-29.59ZM529.6-36.143a1.566,1.566,0,0,0-.513,1.352c.029.156.089.185.159.172a1.669,1.669,0,0,0,.952-.692c.206-.3.3-.74.1-.915A.536.536,0,0,0,529.6-36.143Z" fill="none" clip-rule="evenodd"/>
    </clipPath>
  </defs>
  <g id="Grupo_150" data-name="Grupo 150" transform="translate(0 62)">
    <g id="Grupo_143" data-name="Grupo 143" clip-path="url(#clip-path)">
      <path id="Caminho_45" data-name="Caminho 45" d="M-1-63H598V1H-1Z" fill="#00095b"/>
    </g>
    <g id="Grupo_145" data-name="Grupo 145" clip-path="url(#clip-path-2)">
      <g id="Grupo_144" data-name="Grupo 144" clip-path="url(#clip-path)">
        <path id="Caminho_47" data-name="Caminho 47" d="M19-45.5H69v29H19Z" fill="#fff"/>
      </g>
    </g>
    <g id="Grupo_147" data-name="Grupo 147" clip-path="url(#clip-path)">
      <g id="Grupo_146" data-name="Grupo 146" transform="translate(100 -43)">
        <text id="Mobile_Service" data-name="Mobile Service" transform="translate(0 23)" fill="#fff" font-size="20" font-family="Ford Antenna" font-weight="500"><tspan x="0" y="0">Mobile Service</tspan></text>
      </g>
    </g>
    <g id="Grupo_149" data-name="Grupo 149" clip-path="url(#clip-path-5)">
      <g id="Grupo_148" data-name="Grupo 148" clip-path="url(#clip-path)">
        <path id="Caminho_51" data-name="Caminho 51" d="M490.5-48h86.63v34H490.5Z" fill="#fff"/>
      </g>
    </g>
  </g>
</svg>
